<mxfile host="app.diagrams.net" modified="2022-09-19T10:42:52.175Z" agent="5.0 (Macintosh; Intel Mac OS X 10_15_7) AppleWebKit/537.36 (KHTML, like Gecko) Chrome/105.0.0.0 Safari/537.36" etag="XPdW8b2rf99n3a6kECqP" version="20.2.7" type="github">
  <diagram id="PNfna8RPtIPcOBtYApfI" name="第 1 页">
    <mxGraphModel dx="2493" dy="1970" grid="1" gridSize="10" guides="1" tooltips="1" connect="1" arrows="1" fold="1" page="1" pageScale="1" pageWidth="827" pageHeight="1169" math="0" shadow="0">
      <root>
        <mxCell id="0" />
        <mxCell id="1" parent="0" />
        <mxCell id="YXr3nUFCG6cjJ5tYE9rC-15" style="edgeStyle=orthogonalEdgeStyle;rounded=0;orthogonalLoop=1;jettySize=auto;html=1;exitX=1;exitY=0.5;exitDx=0;exitDy=0;exitPerimeter=0;entryX=0;entryY=0.5;entryDx=0;entryDy=0;" parent="1" source="YXr3nUFCG6cjJ5tYE9rC-6" target="YXr3nUFCG6cjJ5tYE9rC-8" edge="1">
          <mxGeometry relative="1" as="geometry" />
        </mxCell>
        <mxCell id="YXr3nUFCG6cjJ5tYE9rC-6" value="Wonder Test Entrance" style="strokeWidth=2;html=1;shape=mxgraph.flowchart.start_1;whiteSpace=wrap;" parent="1" vertex="1">
          <mxGeometry x="40" y="70" width="100" height="60" as="geometry" />
        </mxCell>
        <mxCell id="YXr3nUFCG6cjJ5tYE9rC-16" style="edgeStyle=orthogonalEdgeStyle;rounded=0;orthogonalLoop=1;jettySize=auto;html=1;exitX=1;exitY=0.5;exitDx=0;exitDy=0;exitPerimeter=0;entryX=-0.025;entryY=0.617;entryDx=0;entryDy=0;entryPerimeter=0;" parent="1" source="YXr3nUFCG6cjJ5tYE9rC-7" target="YXr3nUFCG6cjJ5tYE9rC-8" edge="1">
          <mxGeometry relative="1" as="geometry">
            <Array as="points">
              <mxPoint x="160" y="200" />
              <mxPoint x="160" y="160" />
              <mxPoint x="177" y="160" />
            </Array>
          </mxGeometry>
        </mxCell>
        <mxCell id="YXr3nUFCG6cjJ5tYE9rC-7" value="RP Test Entrance" style="strokeWidth=2;html=1;shape=mxgraph.flowchart.start_1;whiteSpace=wrap;" parent="1" vertex="1">
          <mxGeometry x="40" y="170" width="100" height="60" as="geometry" />
        </mxCell>
        <mxCell id="YXr3nUFCG6cjJ5tYE9rC-44" style="edgeStyle=orthogonalEdgeStyle;rounded=0;orthogonalLoop=1;jettySize=auto;html=1;exitX=1;exitY=0.5;exitDx=0;exitDy=0;entryX=0;entryY=0.5;entryDx=0;entryDy=0;" parent="1" source="YXr3nUFCG6cjJ5tYE9rC-8" target="YXr3nUFCG6cjJ5tYE9rC-34" edge="1">
          <mxGeometry relative="1" as="geometry" />
        </mxCell>
        <mxCell id="YXr3nUFCG6cjJ5tYE9rC-8" value="Choose Profile" style="rounded=1;whiteSpace=wrap;html=1;" parent="1" vertex="1">
          <mxGeometry x="180" y="120" width="120" height="60" as="geometry" />
        </mxCell>
        <mxCell id="YXr3nUFCG6cjJ5tYE9rC-46" style="edgeStyle=orthogonalEdgeStyle;rounded=0;orthogonalLoop=1;jettySize=auto;html=1;exitX=1;exitY=0.5;exitDx=0;exitDy=0;entryX=0;entryY=0.5;entryDx=0;entryDy=0;" parent="1" source="YXr3nUFCG6cjJ5tYE9rC-9" target="YXr3nUFCG6cjJ5tYE9rC-11" edge="1">
          <mxGeometry relative="1" as="geometry" />
        </mxCell>
        <mxCell id="YXr3nUFCG6cjJ5tYE9rC-9" value="Filter Test Case" style="rounded=1;whiteSpace=wrap;html=1;" parent="1" vertex="1">
          <mxGeometry x="520" y="120" width="120" height="60" as="geometry" />
        </mxCell>
        <mxCell id="YXr3nUFCG6cjJ5tYE9rC-47" style="edgeStyle=orthogonalEdgeStyle;rounded=0;orthogonalLoop=1;jettySize=auto;html=1;exitX=1;exitY=0.5;exitDx=0;exitDy=0;entryX=0;entryY=0.5;entryDx=0;entryDy=0;" parent="1" source="YXr3nUFCG6cjJ5tYE9rC-11" target="YXr3nUFCG6cjJ5tYE9rC-12" edge="1">
          <mxGeometry relative="1" as="geometry" />
        </mxCell>
        <mxCell id="YXr3nUFCG6cjJ5tYE9rC-11" value="Sort Test Case" style="rounded=1;whiteSpace=wrap;html=1;" parent="1" vertex="1">
          <mxGeometry x="690" y="120" width="120" height="60" as="geometry" />
        </mxCell>
        <mxCell id="YXr3nUFCG6cjJ5tYE9rC-21" style="edgeStyle=orthogonalEdgeStyle;rounded=0;orthogonalLoop=1;jettySize=auto;html=1;exitX=1;exitY=0.5;exitDx=0;exitDy=0;" parent="1" source="YXr3nUFCG6cjJ5tYE9rC-12" target="YXr3nUFCG6cjJ5tYE9rC-13" edge="1">
          <mxGeometry relative="1" as="geometry" />
        </mxCell>
        <mxCell id="YXr3nUFCG6cjJ5tYE9rC-12" value="Choose Devices" style="rounded=1;whiteSpace=wrap;html=1;" parent="1" vertex="1">
          <mxGeometry x="860" y="120" width="120" height="60" as="geometry" />
        </mxCell>
        <mxCell id="YXr3nUFCG6cjJ5tYE9rC-13" value="Run Test Plan" style="rounded=1;whiteSpace=wrap;html=1;" parent="1" vertex="1">
          <mxGeometry x="1030" y="120" width="120" height="60" as="geometry" />
        </mxCell>
        <mxCell id="YXr3nUFCG6cjJ5tYE9rC-14" value="问题：&lt;br&gt;Envoy和Wonder要分开吗？&lt;br&gt;4. Test分级（Test Plan/User Story/Statement）" style="text;html=1;strokeColor=none;fillColor=none;align=center;verticalAlign=middle;whiteSpace=wrap;rounded=0;" parent="1" vertex="1">
          <mxGeometry x="-40" y="450" width="220" height="30" as="geometry" />
        </mxCell>
        <mxCell id="YXr3nUFCG6cjJ5tYE9rC-23" value="&lt;h2 style=&quot;margin: 0px; padding: 0px; font-size: 1.43em; line-height: 1.2; color: rgb(23, 43, 77); font-weight: 500; letter-spacing: -0.008em; border-bottom-color: rgb(204, 204, 204); font-family: -apple-system, &amp;quot;system-ui&amp;quot;, &amp;quot;Segoe UI&amp;quot;, Roboto, Oxygen, Ubuntu, &amp;quot;Fira Sans&amp;quot;, &amp;quot;Droid Sans&amp;quot;, &amp;quot;Helvetica Neue&amp;quot;, sans-serif; text-align: start; background-color: rgb(255, 255, 255);&quot; data-renderer-start-pos=&quot;1&quot; id=&quot;1.-Choose-Profile,-filter-test-case-and-devices&quot;&gt;Choose Profile, filter test case and devices&lt;/h2&gt;" style="shape=note;whiteSpace=wrap;html=1;backgroundOutline=1;darkOpacity=0.05;" parent="1" vertex="1">
          <mxGeometry x="-10" y="-170" width="400" height="40" as="geometry" />
        </mxCell>
        <mxCell id="YXr3nUFCG6cjJ5tYE9rC-26" value="&lt;div&gt;env&lt;br&gt;&lt;/div&gt;&lt;div&gt;mparticle.enableUploadEvent&lt;br&gt;&lt;/div&gt;&lt;div&gt;enableSftpReport&lt;br&gt;&lt;/div&gt;&lt;div&gt;appiumServerPort&lt;br&gt;&lt;/div&gt;&lt;div&gt;appPath&lt;br&gt;&lt;/div&gt;&lt;div&gt;reportRootFolderName&lt;br&gt;&lt;/div&gt;&lt;div&gt;&lt;span style=&quot;background-color: initial;&quot;&gt;iosRealDevice.udid&lt;/span&gt;&lt;br&gt;&lt;/div&gt;&lt;div&gt;setProfile(测试的账号)&lt;br&gt;&lt;/div&gt;&lt;div&gt;&lt;span style=&quot;background-color: initial;&quot;&gt;enableUploadAllureReport&lt;/span&gt;&lt;br&gt;&lt;/div&gt;&lt;div&gt;device&lt;/div&gt;&lt;div&gt;isUpgradeTest?&lt;/div&gt;" style="shape=note;whiteSpace=wrap;html=1;backgroundOutline=1;darkOpacity=0.05;" parent="1" vertex="1">
          <mxGeometry x="145" y="220" width="190" height="180" as="geometry" />
        </mxCell>
        <mxCell id="YXr3nUFCG6cjJ5tYE9rC-28" style="edgeStyle=orthogonalEdgeStyle;rounded=0;orthogonalLoop=1;jettySize=auto;html=1;exitX=0.5;exitY=1;exitDx=0;exitDy=0;" parent="1" source="YXr3nUFCG6cjJ5tYE9rC-14" target="YXr3nUFCG6cjJ5tYE9rC-14" edge="1">
          <mxGeometry relative="1" as="geometry" />
        </mxCell>
        <mxCell id="YXr3nUFCG6cjJ5tYE9rC-31" value="&lt;b&gt;Priority&lt;/b&gt;: Critical/High/Medium/Low(必填，单选)&lt;br&gt;&lt;b&gt;Business Line&lt;/b&gt;: Wonder/Envoy/RP&lt;br&gt;&lt;b&gt;Group&lt;/b&gt;:Alcohol/Small Order Delivery Fee/Post Release Test/Bundle/RP/Deeplink/Checkout/UI diff(必填，多选，后续会增加)&lt;br&gt;&lt;b&gt;Type&lt;/b&gt;: Functional/UI/API(必填，单选)&lt;br&gt;Functional为功能测试，跟兼容性无关，在本地测试，无需在appcenter执行；&lt;br&gt;UI为需要在appcenter上执行的脚本；&lt;br&gt;API为接口测试&lt;br&gt;&lt;b&gt;Story&lt;/b&gt;: 对应功能测试用例的Test Purpose" style="shape=note;whiteSpace=wrap;html=1;backgroundOutline=1;darkOpacity=0.05;" parent="1" vertex="1">
          <mxGeometry x="430" y="-180" width="270" height="160" as="geometry" />
        </mxCell>
        <mxCell id="YXr3nUFCG6cjJ5tYE9rC-32" value="&lt;pre style=&quot;background-color: rgb(255, 255, 255); font-family: &amp;quot;JetBrains Mono&amp;quot;, monospace; font-size: 9.8pt;&quot;&gt;&lt;span style=&quot;color:#660e7a;font-weight:bold;font-style:italic;&quot;&gt;SMOKE&lt;/span&gt;, &lt;span style=&quot;color:#660e7a;font-weight:bold;font-style:italic;&quot;&gt;UI_TEST&lt;/span&gt;, &lt;span style=&quot;color:#660e7a;font-weight:bold;font-style:italic;&quot;&gt;NO_UI_TEST&lt;/span&gt;, &lt;span style=&quot;color:#660e7a;font-weight:bold;font-style:italic;&quot;&gt;FUNCTIONAL_TEST&lt;/span&gt;, &lt;span style=&quot;color:#660e7a;font-weight:bold;font-style:italic;&quot;&gt;INITIATION&lt;/span&gt;,&lt;br&gt;&lt;span style=&quot;color:#660e7a;font-weight:bold;font-style:italic;&quot;&gt;ORDER&lt;/span&gt;, &lt;span style=&quot;color:#660e7a;font-weight:bold;font-style:italic;&quot;&gt;SHOP_CART&lt;/span&gt;, &lt;span style=&quot;color:#660e7a;font-weight:bold;font-style:italic;&quot;&gt;CHECKOUT&lt;/span&gt;, &lt;span style=&quot;color:#660e7a;font-weight:bold;font-style:italic;&quot;&gt;DINNER_RUSH&lt;/span&gt;, &lt;span style=&quot;color:#660e7a;font-weight:bold;font-style:italic;&quot;&gt;INVENTORY&lt;/span&gt;, &lt;span style=&quot;color:#660e7a;font-weight:bold;font-style:italic;&quot;&gt;ALLERGENS&lt;/span&gt;,&lt;br&gt;&lt;span style=&quot;color:#660e7a;font-weight:bold;font-style:italic;&quot;&gt;FULL_SCREENSHOT&lt;/span&gt;, &lt;span style=&quot;color:#660e7a;font-weight:bold;font-style:italic;&quot;&gt;UPGRADE_TEST&lt;/span&gt;, &lt;span style=&quot;color:#660e7a;font-weight:bold;font-style:italic;&quot;&gt;UAT_POST_RELEASE_TEST&lt;/span&gt;, &lt;span style=&quot;color:#660e7a;font-weight:bold;font-style:italic;&quot;&gt;API_TEST&lt;/span&gt;, &lt;span style=&quot;color:#660e7a;font-weight:bold;font-style:italic;&quot;&gt;UI_DIFF&lt;/span&gt;,&lt;br&gt;&lt;span style=&quot;color:#660e7a;font-weight:bold;font-style:italic;&quot;&gt;RESTAURANT_PORTAL&lt;/span&gt;&lt;/pre&gt;" style="text;html=1;strokeColor=none;fillColor=none;align=center;verticalAlign=middle;whiteSpace=wrap;rounded=0;" parent="1" vertex="1">
          <mxGeometry x="-350" y="-50" width="60" height="30" as="geometry" />
        </mxCell>
        <mxCell id="YXr3nUFCG6cjJ5tYE9rC-45" style="edgeStyle=orthogonalEdgeStyle;rounded=0;orthogonalLoop=1;jettySize=auto;html=1;exitX=1;exitY=0.5;exitDx=0;exitDy=0;entryX=0;entryY=0.5;entryDx=0;entryDy=0;" parent="1" source="YXr3nUFCG6cjJ5tYE9rC-34" target="YXr3nUFCG6cjJ5tYE9rC-9" edge="1">
          <mxGeometry relative="1" as="geometry" />
        </mxCell>
        <mxCell id="YXr3nUFCG6cjJ5tYE9rC-34" value="Case Format" style="rounded=1;whiteSpace=wrap;html=1;" parent="1" vertex="1">
          <mxGeometry x="350" y="120" width="120" height="60" as="geometry" />
        </mxCell>
        <mxCell id="YXr3nUFCG6cjJ5tYE9rC-39" value="" style="endArrow=none;dashed=1;html=1;rounded=0;exitX=0.35;exitY=0;exitDx=0;exitDy=0;exitPerimeter=0;" parent="1" source="YXr3nUFCG6cjJ5tYE9rC-34" edge="1">
          <mxGeometry width="50" height="50" relative="1" as="geometry">
            <mxPoint x="450" y="30" as="sourcePoint" />
            <mxPoint x="500" y="-20" as="targetPoint" />
          </mxGeometry>
        </mxCell>
        <mxCell id="YXr3nUFCG6cjJ5tYE9rC-40" value="Priority&lt;br&gt;Group&lt;br&gt;Type&lt;br&gt;Business Line&lt;br&gt;Test Class" style="shape=note;whiteSpace=wrap;html=1;backgroundOutline=1;darkOpacity=0.05;" parent="1" vertex="1">
          <mxGeometry x="480" y="270" width="100" height="80" as="geometry" />
        </mxCell>
        <mxCell id="YXr3nUFCG6cjJ5tYE9rC-41" value="" style="endArrow=none;dashed=1;html=1;dashPattern=1 3;strokeWidth=2;rounded=0;entryX=0.558;entryY=1.05;entryDx=0;entryDy=0;entryPerimeter=0;exitX=0.422;exitY=0;exitDx=0;exitDy=0;exitPerimeter=0;" parent="1" source="YXr3nUFCG6cjJ5tYE9rC-40" target="YXr3nUFCG6cjJ5tYE9rC-9" edge="1">
          <mxGeometry width="50" height="50" relative="1" as="geometry">
            <mxPoint x="510" y="260" as="sourcePoint" />
            <mxPoint x="560" y="210" as="targetPoint" />
          </mxGeometry>
        </mxCell>
        <mxCell id="YXr3nUFCG6cjJ5tYE9rC-48" value="1. Priority&lt;br&gt;2. Type(API-&amp;gt;UI-&amp;gt;Functional)&lt;br&gt;3. Name Alphabetic" style="shape=note;whiteSpace=wrap;html=1;backgroundOutline=1;darkOpacity=0.05;" parent="1" vertex="1">
          <mxGeometry x="680" y="230" width="140" height="100" as="geometry" />
        </mxCell>
        <mxCell id="YXr3nUFCG6cjJ5tYE9rC-49" value="" style="endArrow=none;dashed=1;html=1;dashPattern=1 3;strokeWidth=2;rounded=0;" parent="1" edge="1">
          <mxGeometry width="50" height="50" relative="1" as="geometry">
            <mxPoint x="730" y="230" as="sourcePoint" />
            <mxPoint x="780" y="180" as="targetPoint" />
          </mxGeometry>
        </mxCell>
      </root>
    </mxGraphModel>
  </diagram>
</mxfile>
